<?xml version="1.0" encoding="UTF-8"?>
<svg width="26px" height="26px" viewBox="0 0 26 26" version="1.1" xmlns="http://www.w3.org/2000/svg" xmlns:xlink="http://www.w3.org/1999/xlink">
    <!-- Generator: sketchtool 52.6 (67491) - http://www.bohemiancoding.com/sketch -->
    <title>657B7298-7FEB-48AB-A5F3-2716A1A1DCF1</title>
    <desc>Created with sketchtool.</desc>
    <g id="Symbols" stroke="none" stroke-width="1" fill="none" fill-rule="evenodd">
        <g id="icon-/-social-networks-/-fb">
            <g id="icon-/-social-networks-/-fb-copy-2">
                <path d="M24.5645833,0 L1.44444444,0 C0.646699806,-4.88477709e-17 9.76955418e-17,0.646699806 0,1.44444444 L0,24.5736111 C0.00988432727,25.3642957 0.653698072,26.0000618 1.44444444,26 L13.9027778,26 L13.9027778,15.9448611 L10.5119444,15.9448611 L10.5119444,12.0105556 L13.8883333,12.0105556 L13.8883333,9.12166667 C13.8883333,5.76333333 15.9394444,3.93430556 18.9438889,3.93430556 C19.9552198,3.93098266 20.9659937,3.9822145 21.9718056,4.08777778 L21.9718056,7.58333333 L19.8972222,7.58333333 C18.2722222,7.58333333 17.9508333,8.35791667 17.9508333,9.49361111 L17.9508333,12.0105556 L21.8472222,12.0105556 L21.3416667,15.9448611 L17.9508333,15.9448611 L17.9508333,26 L24.5645833,26 C25.3552924,25.9950733 25.9950733,25.3552924 26,24.5645833 L26,1.44444444 C26.0000155,0.650212115 25.3588002,0.00496395191 24.5645833,0 Z" id="Path" fill="#4267B2"></path>
                <path d="M17.9508333,26 L17.9508333,15.9448611 L21.3416667,15.9448611 L21.8472222,12.0105556 L17.9508333,12.0105556 L17.9508333,9.50263889 C17.9508333,8.36694444 18.2668056,7.59236111 19.8972222,7.59236111 L21.9627778,7.59236111 L21.9627778,4.08055556 C20.9569659,3.97499227 19.946192,3.92376044 18.9348611,3.92708333 C15.9394444,3.92708333 13.8883333,5.75611111 13.8883333,9.11444444 L13.8883333,12.0033333 L10.5119444,12.0033333 L10.5119444,15.9448611 L13.8883333,15.9448611 L13.8883333,26 L17.9508333,26 Z" id="f" fill="#FFFFFF"></path>
            </g>
        </g>
    </g>
</svg>