<?xml version="1.0" encoding="UTF-8"?>
<svg width="28px" height="28px" viewBox="0 0 28 28" version="1.1" xmlns="http://www.w3.org/2000/svg" xmlns:xlink="http://www.w3.org/1999/xlink">
    <!-- Generator: sketchtool 52.6 (67491) - http://www.bohemiancoding.com/sketch -->
    <title>F04B597E-687B-46B1-B6B8-990DEA4BAE26</title>
    <desc>Created with sketchtool.</desc>
    <g id="Symbols" stroke="none" stroke-width="1" fill="none" fill-rule="evenodd">
        <g id="icon-/-social-networks-/-google" transform="translate(1.000000, 1.000000)">
            <g>
                <g id="button" fill="#FFFFFF" stroke="#E7E7E7">
                    <rect id="button-bg" x="-0.5" y="-0.5" width="27" height="27" rx="2"></rect>
                </g>
                <g id="logo_googleg_48dp" transform="translate(6.842105, 6.842105)">
                    <path d="M12.74,6.64772727 C12.74,6.18681818 12.6986364,5.74363636 12.6218182,5.31818182 L6.5,5.31818182 L6.5,7.8325 L9.99818182,7.8325 C9.8475,8.645 9.38954545,9.33340909 8.70113636,9.79431818 L8.70113636,11.4252273 L10.8018182,11.4252273 C12.0309091,10.2936364 12.74,8.62727273 12.74,6.64772727 L12.74,6.64772727 Z" id="Shape" fill="#4285F4"></path>
                    <path d="M6.5,13 C8.255,13 9.72636364,12.4179545 10.8018182,11.4252273 L8.70113636,9.79431818 C8.11909091,10.1843182 7.37454545,10.4147727 6.5,10.4147727 C4.80704545,10.4147727 3.37409091,9.27136364 2.86295455,7.735 L0.691363636,7.735 L0.691363636,9.41909091 C1.76090909,11.5434091 3.95909091,13 6.5,13 L6.5,13 Z" id="Shape" fill="#34A853"></path>
                    <path d="M2.86295455,7.735 C2.73295455,7.345 2.65909091,6.92840909 2.65909091,6.5 C2.65909091,6.07159091 2.73295455,5.655 2.86295455,5.265 L2.86295455,3.58090909 L0.691363636,3.58090909 C0.251136364,4.45840909 0,5.45113636 0,6.5 C0,7.54886364 0.251136364,8.54159091 0.691363636,9.41909091 L2.86295455,7.735 L2.86295455,7.735 Z" id="Shape" fill="#FBBC05"></path>
                    <path d="M6.5,2.58522727 C7.45431818,2.58522727 8.31113636,2.91318182 8.98477273,3.55727273 L10.8490909,1.69295455 C9.72340909,0.644090909 8.25204545,0 6.5,0 C3.95909091,0 1.76090909,1.45659091 0.691363636,3.58090909 L2.86295455,5.265 C3.37409091,3.72863636 4.80704545,2.58522727 6.5,2.58522727 L6.5,2.58522727 Z" id="Shape" fill="#EA4335"></path>
                    <polygon id="Shape" points="0 0 13 0 13 13 0 13"></polygon>
                </g>
            </g>
        </g>
    </g>
</svg>