<?xml version="1.0" encoding="UTF-8"?><svg width="160px" height="40px" viewBox="0 0 160 40" version="1.1" xmlns="http://www.w3.org/2000/svg" xmlns:xlink="http://www.w3.org/1999/xlink">        <title>mamsy-logo</title>    <desc>Created with Sketch.</desc>    <defs>        <polygon id="path-1" points="0 0.130162932 73.7938377 0.130162932 73.7938377 35.9834655 0 35.9834655"></polygon>    </defs>    <g id="mamsy-logo" stroke="none" stroke-width="1" fill="none" fill-rule="evenodd">        <g transform="translate(0.000000, 2.000000)">            <g id="Group">                <g id="Group-3">                    <g id="Fill-1-Clipped">                        <mask id="mask-2" fill="white">                            <use xlink:href="#path-1"></use>                        </mask>                        <g id="path-1"></g>                        <path d="M55.3821734,18.4667232 C55.0367542,18.1149122 54.7146932,17.7964983 54.2874492,17.5408823 C53.5641922,17.1064349 52.7511829,16.8154237 51.9281224,16.6294563 C51.7912288,16.5969155 51.6223414,16.5759353 51.5071073,16.4897309 C51.3577559,16.3809764 51.479219,16.1895854 51.64301,16.1624682 C52.1980874,16.0662733 52.7826104,16.2486726 53.2918207,16.4544785 C54.0374449,16.7536249 54.7309732,17.194352 55.2311233,17.8338915 C55.3416857,17.9743305 55.5837624,18.2426489 55.5817804,18.4423176 C55.5817804,18.6626811 55.4828263,18.5691979 55.3821734,18.4667232 Z M54.7713192,18.7804272 C54.236061,18.6208635 53.6901853,18.5827566 53.1460084,18.5258103 C52.6972466,18.4777128 52.2446623,18.4784264 51.7959005,18.5083981 C51.6339497,18.5193878 51.4746888,18.531091 51.3135876,18.5656298 C51.1581489,18.600026 50.9835989,18.6572578 50.8207989,18.6172955 C50.6400201,18.5756204 50.7173147,18.4133449 50.8127297,18.3362748 C50.9071537,18.2572065 51.0213969,18.2029719 51.13111,18.1511637 C51.4656287,17.9961671 51.841626,17.9497822 52.2051656,17.9226649 C53.0974516,17.8510182 54.0003548,18.1122004 54.7830692,18.5392262 C54.8910835,18.5956016 55.1069705,18.7187712 55.1500063,18.8348045 C55.1518467,18.8403707 55.1518467,18.8439388 55.1555274,18.8493623 C55.1743556,18.9665374 54.8136473,18.7949849 54.7713192,18.7804272 Z M54.6283384,19.4870464 C54.4593094,19.5105956 54.2874492,19.5267233 54.1201191,19.5621184 C53.45094,19.7045555 52.7681708,19.7916163 52.1421691,20.0800585 C52.0504348,20.1217334 51.5610437,20.3839147 51.5341463,20.1644074 C51.5269265,20.1071757 51.6025223,20.0228268 51.6329588,19.9830071 C51.8526681,19.7182569 52.2942102,19.583955 52.6089098,19.4833356 C53.1100508,19.3227728 53.6478573,19.2756744 54.1733475,19.277387 C54.3405361,19.2783861 54.5077247,19.2865213 54.6751965,19.301079 C54.7002535,19.3037907 54.8425266,19.301079 54.8603638,19.3254846 C54.9719173,19.4752005 54.7200727,19.4752005 54.6283384,19.4870464 Z M73.7804204,31.4673168 C73.9314706,30.7418583 72.7675209,30.3836248 72.2801116,30.3919027 C71.3391273,30.4063176 70.7366255,30.4852432 69.9396131,30.9803476 C67.994931,32.1837839 64.578678,31.0628412 62.8227024,29.9176358 C58.7903572,27.2858327 60.9294085,20.3612218 60.8635806,16.4653254 C60.7683072,10.7006204 56.2581793,6.91533389 50.7730913,6.61790018 C49.7719418,6.56523557 48.0926946,6.70125012 47.6562489,7.87114656 C47.4018561,8.55050572 48.0422973,9.22858034 48.3678975,9.76464615 C48.9120744,10.6633698 49.2637225,11.6100482 49.5597355,12.6166701 C47.7373658,10.7204588 46.7037978,8.24650677 45.1305829,6.16175903 C43.6418826,4.19019025 41.8949671,2.31296104 39.693061,1.15405424 C36.9982245,-0.258898638 32.4702593,-0.739445337 31.741623,3.26163758 C31.3007887,5.68920479 33.4228521,7.51733746 34.7027437,9.27853324 C35.1398972,9.87525605 35.5464727,10.4982398 35.9026508,11.146771 C36.4909962,12.2167616 36.8246655,13.3812346 37.3023067,14.4974674 C37.705343,15.4397214 38.2648089,16.295771 39.1975825,16.7664699 C39.9729355,17.1582432 40.8480919,17.2888343 41.6846011,17.4927847 C42.7136391,17.74312 43.4170769,18.2091091 44.1132949,19.0072133 C43.2767857,18.3434109 42.0893362,18.3579686 41.0819578,18.2082527 C39.8101354,18.0187172 38.5040542,17.4546778 37.5640608,16.564232 C36.498216,15.5557548 35.8253562,14.2118796 35.2677306,12.8722861 C34.5785909,11.2109961 33.8931319,9.07172836 32.3227484,8.03713285 C30.3626357,6.74378143 27.5923449,6.89078563 25.3929869,7.34978122 C24.596116,7.51733746 23.8241606,7.76952814 23.0686268,8.0723853 C22.3041743,8.37795421 21.5584085,8.73718677 20.8487418,9.15878906 C20.240719,9.51516719 19.6829518,10.0366753 18.9902729,10.2197882 C18.2933472,10.4039003 17.5942979,10.1537077 16.9187484,9.99314486 C16.2981262,9.84628339 15.6649048,9.75108746 15.0362134,9.64033482 C14.375953,9.52530052 13.7130028,9.55056235 13.0500527,9.45351105 C11.9716085,9.29309098 10.9462513,9.44537591 9.88380393,9.63762314 C8.88548564,9.81816705 7.90316425,10.0983314 6.97322199,10.5173647 C6.62780274,10.671505 6.30036228,10.8637522 5.9574912,11.0305948 C5.72093563,11.146771 5.48353068,11.2182749 5.22630659,11.1212236 C4.60384409,10.8835906 4.40055638,10.2524717 4.12351314,9.70384633 C3.89771654,9.25584036 3.40931637,8.6936564 2.97938264,8.43233148 C2.87773878,8.36981902 2.82918189,8.30273944 2.74098673,8.23009368 C2.70403819,8.20026468 2.64118321,8.18941776 2.59248476,8.16672488 C2.70134846,8.25835274 2.81205249,8.45702247 2.86329912,8.55578646 C3.0369997,8.90317305 3.31036224,9.21402269 3.44173481,9.58153311 C3.24750726,9.61949731 2.98561152,9.38457609 2.82918189,9.28310038 C2.20233088,8.87220227 1.23798828,8.90588478 0.518412014,8.9003186 C0.788235415,8.93214572 1.10123622,9.10812258 1.30622273,9.21773342 C1.60393449,9.37187381 1.8423304,9.59594811 2.08355762,9.82444682 C2.17062027,9.90694047 2.29760431,10.0303955 2.3424805,10.1382937 C2.24352637,10.1808249 2.09247623,10.1427181 1.98545289,10.1581321 C1.70373801,10.2008061 1.42867669,10.2760209 1.15871172,10.3650798 C0.927677207,10.4402945 0.720708782,10.5200764 0.507511487,10.6271183 C0.45357512,10.6532365 0.345702386,10.6459576 0.360142043,10.7331611 C0.554228026,10.7729807 0.759497666,10.7331611 0.957264344,10.755854 C1.17315138,10.7831139 1.38096919,10.785683 1.59770562,10.7966726 C1.66240095,10.801097 1.86229111,10.8093749 1.86936937,10.9064262 C1.88196868,11.0188916 1.65164199,11.1783126 1.58241657,11.2328326 C1.21816914,11.5284109 0.782855935,11.7660439 0.454424512,12.1034399 C0.31866342,12.2431653 -0.00778608971,12.5922646 0.000141565332,12.8043502 C0.342021689,12.8751406 0.716178694,12.7372706 1.04177881,12.6593441 C1.18405191,12.6266607 1.33227074,12.5787059 1.4755348,12.5513032 C1.53385969,12.5386009 1.60223571,12.5513032 1.65348233,12.5104845 C1.63196441,12.723712 1.49974245,12.9457882 1.41777616,13.1408899 C1.36553858,13.2703392 1.30098481,13.3947932 1.22453957,13.511683 C1.1543232,13.6378497 1.12204632,13.7755769 1.05522751,13.9026 C0.975243137,14.0520304 0.86199092,14.1673502 0.791774547,14.326914 C0.760347057,14.3948499 0.694660773,14.4774862 0.677531375,14.5464212 C0.77195541,14.5736812 1.03101985,14.3341928 1.10123622,14.2843826 C1.36553858,14.101127 1.57958527,13.8716292 1.81175231,13.6504092 C1.98078123,13.4845657 2.15717156,13.2921757 2.33795041,13.1417463 C2.45403393,13.0472639 2.52240995,13.045694 2.50443117,13.2305196 C2.47569341,13.5272398 2.34701059,13.849079 2.2544269,14.1300996 C2.14910235,14.4375239 2.04929883,14.7423792 1.96733254,15.057796 C1.90801669,15.2845821 1.82803232,15.5040892 1.8065144,15.7398668 C1.79561387,15.8603246 1.72100897,16.0047599 1.75951472,16.1260739 C1.88295964,16.154333 2.09247623,15.9348258 2.17345157,15.8613237 C2.42515461,15.6372494 2.63566217,15.2818703 2.7814744,14.9844366 C2.90831687,14.7323886 3.03331901,14.4774862 3.1556314,14.2244392 C3.2167876,14.0984152 3.29776293,13.8898977 3.41483741,13.8091167 C3.48944231,14.3070755 3.53884858,14.8130268 3.60170357,15.311842 C3.63426358,15.5674581 3.64870323,15.8233595 3.68282046,16.0754075 C3.7026396,16.2314032 3.65748028,16.4135171 3.69980829,16.564232 C3.85368974,16.6330244 4.04423659,16.3411568 4.11544392,16.2422501 C4.28277407,16.0027617 4.37351741,15.6854895 4.45449274,15.4070379 C4.53461868,15.1096042 4.60922358,14.7977556 4.65594011,14.4929002 C4.6650003,14.4413774 4.62182289,14.0494614 4.67575926,14.0150653 C4.74682502,13.9696795 4.86913741,14.1229635 4.91854369,14.1673502 C5.10484358,14.3297684 5.25858347,14.5499892 5.3595195,14.7804861 C5.47008198,15.0325341 5.5347773,15.3225463 5.59777385,15.590151 C5.62750255,15.7108942 5.61674359,15.8387735 5.64633074,15.9520952 C5.92776249,15.7225974 5.87750682,15.2038011 5.91898545,14.8811054 C5.9603225,14.5626915 6.02586722,14.1990346 5.89010612,13.9007446 C5.82526923,13.7528841 5.77133286,13.5941766 5.70493876,13.4517395 C5.64916204,13.3357061 5.55374705,13.2078267 5.52670809,13.0873689 C5.45833206,12.7980704 5.56096688,12.4779439 5.75689321,12.2811295 C5.86136838,12.1777984 5.9574912,12.1297009 6.08079454,12.0653331 C6.36675638,11.9157598 6.59340239,11.7069568 6.89394545,11.5755093 C7.18797651,11.44763 7.49842914,11.3588566 7.81058056,11.2844982 C8.35475745,11.1530508 8.91323243,11.0848294 9.46477071,10.9916315 C9.48105076,10.9889199 9.49350843,10.9869218 9.50794811,10.9833537 C11.8914826,10.5636068 14.4695277,11.2436795 15.1656041,13.8517907 C15.6513145,15.6709319 15.5578815,17.7421209 15.6532965,19.6139267 C15.8051959,22.5220407 15.9239693,25.4348644 16.1487749,28.3415511 C16.2882167,30.1024615 16.0778507,32.6570517 17.6969326,33.835226 C19.702771,35.2924229 23.0526299,34.7637787 25.3677883,34.6667274 C26.9509127,34.6005041 28.4493811,34.0383202 29.1276202,32.501056 C29.7277154,31.1434794 29.5449547,29.5800971 29.5143766,28.1383142 C29.4604402,25.625399 29.5143766,23.1053475 29.3705463,20.5978557 C29.3345887,19.9621697 29.3651668,19.1950361 29.732104,18.6525479 C30.5218966,17.4792261 31.3439661,18.9192963 31.5977926,19.6600261 C32.3227484,21.7840225 32.484699,24.0428918 32.6501888,26.2673648 C32.6987458,26.9267428 32.7473026,27.5841227 32.8119979,28.2397899 C32.8938226,29.0514528 33.0090568,29.8585487 33.202435,30.6530849 C33.3444249,31.2342509 33.5324236,31.8037138 33.7887983,32.3406358 C34.235012,33.2828899 34.904191,34.0681492 35.8739131,34.4870397 C37.2284096,35.0766264 38.775718,35.1310038 40.231009,35.158121 C42.1451129,35.1943725 45.1161433,35.4565538 46.120832,33.3381235 C46.6804395,32.1583792 46.6013045,30.8035144 46.6182923,29.5311432 C46.6335814,28.2072492 46.5561452,26.8850678 46.5060311,25.5628865 C46.4608718,24.3176325 46.3377099,22.9474964 46.6075334,21.720511 C46.7641046,21.0041868 47.6348725,20.074635 48.1538508,21.0041868 C48.526309,21.6725562 48.5567456,22.4959224 48.605444,23.2412193 C48.6565491,24.009352 48.6763682,24.772061 48.8085902,25.5339139 C48.9722396,26.4778805 49.2260662,27.4037215 49.5651149,28.297878 C50.2181556,30.0272466 51.2345942,31.6541406 52.6574667,32.8430191 C53.487747,33.5366506 54.5006465,34.0752853 55.5169435,34.4262399 C56.6180382,34.8035983 57.8216261,35.0368069 58.9818951,35.1265793 C60.933797,35.2778652 62.8910783,35.0029816 64.835902,34.8633991 C66.1903986,34.7673468 68.2106764,34.5280011 69.518598,34.9287659 C70.2166564,35.142707 70.8194413,35.7113134 71.4794185,35.9091269 C72.1937568,36.1220689 73.0319648,35.8683082 73.5052175,35.2661619 C74.0789815,34.5359936 73.5284342,33.9412689 73.2874902,33.2222329 C73.2191141,33.0144288 73.1057203,32.8084803 73.0914222,32.5664229 C73.0859012,32.4874973 73.0914222,32.403291 73.1129401,32.3125195 C73.2137346,31.8980533 73.6957643,31.8689379 73.7804204,31.4673168 Z" id="Fill-1" fill="#DA286A" fill-rule="nonzero" mask="url(#mask-2)"></path>                    </g>                </g>                <path d="M74.5316521,15.6061027 C74.1019549,16.25079 73.2228873,16.6609555 70.7030163,17.8915934 C68.9450228,18.731456 66.8157856,19.8841087 66.8157856,22.9703987 C66.8157856,25.3730796 68.1831454,26.4865274 70.0194073,26.4865274 C71.6211473,26.4865274 73.1838239,25.6466648 74.5316521,23.4588325 L74.5316521,15.6061027 Z M76.5436991,8.16367994 C77.8132588,9.45291299 78.1454391,10.9374629 78.1454391,13.7698409 L78.1454391,24.8847873 C78.1454391,26.1738788 78.4579461,26.7795027 79.3760771,26.7795027 C80.0988911,26.7795027 80.6262467,26.4082591 81.1732756,25.9394986 L81.622646,26.6232492 C80.5090566,27.4632533 79.6691939,28.0884089 77.969654,28.0884089 C75.1763393,28.0884089 74.5316521,26.4082591 74.5316521,24.5330754 C72.8127219,27.3654534 70.2928509,28.0884089 68.3784623,28.0884089 C65.7023378,28.0884089 63.2997985,26.7404393 63.2997985,23.6149445 C63.2997985,20.4505277 65.7414012,19.0441046 69.7458221,17.3640963 C72.422088,16.25079 74.5316521,15.5670394 74.5316521,13.9651578 L74.5316521,11.4844917 C74.5316521,8.12461655 72.8908486,7.46039759 70.8202065,7.46039759 C69.4528467,7.46039759 67.7729799,7.73384124 66.854849,8.88649397 C67.8511067,9.14040597 68.7301742,10.0194734 68.7301742,11.3282382 C68.7301742,12.6955979 67.8120433,13.4963972 66.3860885,13.4963972 C65.0187287,13.4963972 64.2177879,12.4610762 64.2177879,11.0157312 C64.2177879,9.84354676 64.9796653,8.92555734 66.0929716,8.16367994 C67.2259511,7.42133421 69.1403397,6.65959834 71.699274,6.65959834 C73.9457013,6.65959834 75.6255682,7.24554901 76.5436991,8.16367994 Z" id="Fill-4" fill="#DA2A6A" fill-rule="nonzero"></path>                <path d="M113.958631,24.1033783 C113.958631,26.3302739 114.798777,26.9748196 117.006141,26.9748196 L117.006141,27.8148238 C116.087868,27.7757604 113.958631,27.6584287 112.200637,27.6584287 C110.442644,27.6584287 108.567318,27.7757604 107.727456,27.8148238 L107.727456,26.9748196 C109.641703,26.9748196 110.364517,26.3302739 110.364517,24.1033783 L110.364517,12.5393445 C110.364517,10.0583953 110.208264,7.92929966 107.317149,7.92929966 C104.211327,7.92929966 101.925837,11.0937163 101.925837,15.176264 L101.925837,24.1033783 C101.925837,26.3302739 102.765699,26.9748196 104.953531,26.9748196 L104.953531,27.8148238 C104.035543,27.7757604 101.925837,27.6584287 100.167844,27.6584287 C98.4097085,27.6584287 96.5148511,27.7757604 95.6749885,27.8148238 L95.6749885,26.9748196 C97.6089085,26.9748196 98.3120497,26.3302739 98.3120497,24.1033783 L98.3120497,12.5393445 C98.3120497,10.0583953 98.1557966,7.92929966 95.2843553,7.92929966 C92.1588601,7.92929966 89.8733693,11.1329213 89.8733693,15.2154689 L89.8733693,24.1033783 C89.8733693,26.3302739 90.5961835,26.9748196 92.5301035,26.9748196 L92.5299625,27.8148238 C91.689958,27.7757604 89.795384,27.6584287 88.037249,27.6584287 C86.2792554,27.6584287 84.1500182,27.7757604 83.2318873,27.8148238 L83.2318873,26.9748196 C85.4391097,26.9748196 86.2792554,26.3302739 86.2792554,24.1033783 L86.2792554,11.5821501 C86.2792554,9.17946929 85.5562998,8.0464898 83.2318873,8.0464898 L83.2318873,7.20648563 C84.07175,7.28461238 84.9118956,7.3238173 85.7126949,7.3238173 C87.2753716,7.3238173 88.7209996,7.16742226 89.8733693,6.77678847 L89.8733693,11.4844917 C91.2408705,8.00742642 93.8777898,6.65959834 96.4367241,6.65959834 C98.3120497,6.65959834 99.6795507,7.20648563 100.59754,8.16367994 C101.300823,8.92555734 101.671925,9.9607369 101.828178,11.3868333 C103.254133,7.75351446 105.94979,6.65959834 108.489333,6.65959834 C110.364517,6.65959834 111.731877,7.20648563 112.650008,8.16367994 C113.646124,9.25759602 113.958631,10.8983995 113.958631,13.4182705 L113.958631,24.1033783" id="Fill-5" fill="#DA2A6A" fill-rule="nonzero"></path>                <path d="M129.429427,8.12461655 C129.703013,8.33946514 129.937393,8.45665527 130.13271,8.45665527 C130.60147,8.45665527 130.894445,7.89023628 131.031167,6.69866171 L131.94944,6.69866171 C131.832108,8.16367994 131.793045,10.0583953 131.793045,13.4963972 L130.875055,13.4963972 C130.386621,10.5272974 129.038793,7.42133421 125.425006,7.42133421 C123.549822,7.42133421 122.143258,8.49571865 122.143258,10.488234 C122.143258,12.8910564 124.545939,14.0043627 127.280658,15.7818879 C130.308495,17.7353399 132.750239,19.4933334 132.750239,22.7750819 C132.750239,26.447464 129.546618,28.3813843 125.913299,28.3813843 C124.760929,28.3813843 123.705934,28.2055991 122.748882,27.8148238 C122.182463,27.5412386 121.635434,27.1701365 121.108079,26.7404393 C120.990888,26.6232492 120.854025,26.5841859 120.736835,26.5841859 C120.385265,26.5841859 120.072758,27.0920098 119.916362,28.0884089 L118.998373,28.0884089 C119.115563,26.3693372 119.154627,24.1424416 119.154627,20.0988158 L120.072758,20.0988158 C120.600113,24.5722803 121.635434,27.5804435 125.639855,27.5804435 C127.241736,27.5804435 129.195047,26.6232492 129.195047,23.7713395 C129.195047,21.4467854 127.280658,20.1770841 124.663129,18.5361391 C121.752625,16.7000188 119.154627,15.1373422 119.154627,11.8165304 C119.154627,8.26133838 121.908878,6.65959834 125.073436,6.65959834 C127.183141,6.65959834 128.706613,7.53866588 129.429427,8.12461655" id="Fill-6" fill="#DA2A6A" fill-rule="nonzero"></path>                <path d="M153.659195,6.66993031 L153.659195,7.47087111 C152.662796,7.58806124 151.822085,8.23260698 151.060632,10.2837174 L144.497701,27.4735854 L143.130483,30.9506507 C142.602561,32.3180104 142.05624,33.1969364 141.410987,33.7634969 C140.532061,34.5642962 139.242828,34.798818 138.285633,34.798818 C136.762019,34.798818 135.570445,33.9588138 135.570445,32.3961371 C135.570445,31.1264358 136.371386,30.2865732 137.699683,30.2865732 C138.81313,30.2865732 139.73112,30.9115873 139.73112,32.1617569 C139.73112,33.0797463 139.203622,33.6463068 138.656735,33.9588138 C138.734862,33.9978772 138.81313,33.9978772 138.891115,33.9978772 C140.336602,33.9978772 141.450191,33.0797463 142.289771,30.8723824 L143.716433,27.2196734 L136.449512,9.75636176 C135.414192,7.666188 134.378871,7.50993448 133.734183,7.50993448 L133.734183,6.66993031 C134.886695,6.82618383 136.136864,6.92384228 137.660477,6.92384228 C139.281891,6.92384228 141.254875,6.78726198 142.857322,6.66993031 L142.857322,7.50993448 C141.352391,7.50993448 140.063299,7.50993448 140.063299,8.89682594 C140.063299,9.36558653 140.219412,10.0102738 140.571124,10.8698096 L145.396442,22.8244772 L149.810886,11.2409117 C150.084047,10.498566 150.24115,9.89308366 150.24115,9.40479141 C150.24115,8.13494854 149.282965,7.60759293 147.251952,7.47087111 L147.251952,6.66993031 C148.6588,6.74805708 149.380623,6.78726198 150.611969,6.78726198 C151.861714,6.78726198 152.818484,6.74805708 153.659195,6.66993031" id="Fill-7" fill="#DA2A6A" fill-rule="nonzero"></path>            </g>            <path d="M159.999833,5.39370733 C160.012007,6.49474775 159.357205,7.49384624 158.342772,7.92205397 C157.328338,8.35026179 156.155685,8.12256009 155.375224,7.34582572 C154.594761,6.56909144 154.361447,5.39754156 154.784792,4.38106874 C155.208136,3.36459591 156.204088,2.70501632 157.305173,2.71191806 C158.018655,2.7084933 158.704089,2.98952552 159.20981,3.49283025 C159.71553,3.99613497 159.999841,4.68021664 159.999833,5.39370733 Z M155.133998,5.39370733 C155.114015,5.97973788 155.334765,6.54841067 155.74491,6.96747182 C156.155054,7.38653297 156.718848,7.61946043 157.305173,7.61208344 C157.881793,7.61138893 158.433246,7.37581207 158.832388,6.95966725 C159.231531,6.54352244 159.443912,5.9827279 159.420567,5.40657991 C159.420567,4.22169086 158.460025,3.26114849 157.275137,3.26114849 C156.090249,3.26114849 155.129707,4.22169086 155.129707,5.40657991 L155.133998,5.39370733 Z M156.794561,6.88263675 L156.305403,6.88263675 L156.305403,4.06353984 C156.610665,4.00378592 156.921184,3.97503409 157.232229,3.97772259 C157.547121,3.94743572 157.862725,4.02785383 158.124728,4.20513832 C158.309864,4.34467018 158.415513,4.56557249 158.407924,4.79727739 C158.381304,5.11100209 158.156395,5.37224221 157.850113,5.44519768 L157.850113,5.47952458 C158.111854,5.5696327 158.236289,5.79275757 158.322107,6.16177177 C158.352762,6.40635869 158.423812,6.64415901 158.532359,6.86547327 L158.026038,6.86547327 C157.897285,6.6390061 157.819664,6.38710183 157.798622,6.12744487 C157.729968,5.81421188 157.53688,5.67261341 157.133539,5.67261341 L156.794561,5.67261341 L156.794561,6.88263675 Z M156.794561,5.28643575 L157.146411,5.28643575 C157.528297,5.28643575 157.880148,5.17916419 157.880148,4.85734947 C157.880148,4.53553476 157.704223,4.38106369 157.197902,4.38106369 C157.062658,4.37934443 156.927569,4.39084133 156.794561,4.4153906 L156.794561,5.28643575 Z" id="Shape" fill="#DA286A" fill-rule="nonzero"></path>        </g>    </g></svg>