<?xml version="1.0" encoding="UTF-8"?>
<svg width="26px" height="26px" viewBox="0 0 26 26" version="1.1" xmlns="http://www.w3.org/2000/svg" xmlns:xlink="http://www.w3.org/1999/xlink">
    <!-- Generator: sketchtool 52.6 (67491) - http://www.bohemiancoding.com/sketch -->
    <title>794EDED5-6815-46E7-A922-FD857E5DC7C8</title>
    <desc>Created with sketchtool.</desc>
    <defs>
        <polygon id="path-1" points="0.123569892 0.0517189189 25.9323441 0.0517189189 25.9323441 25.9915676 0.123569892 25.9915676"></polygon>
    </defs>
    <g id="Symbols" stroke="none" stroke-width="1" fill="none" fill-rule="evenodd">
        <g id="icon-/-social-networks-/-ok">
            <g id="icon-/-social-networks-/-ok-copy-2">
                <g id="Group-3">
                    <mask id="mask-2" fill="white">
                        <use xlink:href="#path-1"></use>
                    </mask>
                    <g id="Clip-2"></g>
                    <path d="M25.9323441,24.4856757 C25.9323441,25.3185189 25.2545269,26 24.4261613,26 L1.63017204,26 C0.801666667,26 0.123569892,25.3185189 0.123569892,24.4856757 L0.123569892,1.56604324 C0.123569892,0.7332 0.801666667,0.0517189189 1.63017204,0.0517189189 L24.4261613,0.0517189189 C25.2545269,0.0517189189 25.9323441,0.7332 25.9323441,1.56604324 L25.9323441,24.4856757" id="Fill-1" fill="#E9852C" mask="url(#mask-2)"></path>
                </g>
                <path d="M13.0282366,6.99315676 C14.0418172,6.99315676 14.866828,7.82234595 14.866828,8.84168649 C14.866828,9.8599027 14.0418172,10.689373 13.0282366,10.689373 C12.0149355,10.689373 11.1896452,9.8599027 11.1896452,8.84168649 C11.1896452,7.82234595 12.0149355,6.99315676 13.0282366,6.99315676 Z M13.0282366,13.3048324 C15.477129,13.3048324 17.4687849,11.302973 17.4687849,8.84168649 C17.4687849,6.37927568 15.477129,4.37657297 13.0282366,4.37657297 C10.5793441,4.37657297 8.5874086,6.37927568 8.5874086,8.84168649 C8.5874086,11.302973 10.5793441,13.3048324 13.0282366,13.3048324 Z" id="Fill-4" fill="#FFFFFE"></path>
                <path d="M14.8244731,16.9465189 C15.7284624,16.7395027 16.6007204,16.3798595 17.403086,15.8726486 C18.0110108,15.4877081 18.1939892,14.6801622 17.8111183,14.0692324 C17.4285269,13.4570378 16.6256022,13.2729297 16.0172581,13.6578703 C14.1982366,14.8079135 11.8564194,14.8073514 10.0386559,13.6578703 C9.42989247,13.2729297 8.62724731,13.4570378 8.24493548,14.0692324 C7.86206452,14.6807243 8.04490323,15.4877081 8.65282796,15.8726486 C9.45519355,16.3794378 10.327172,16.7395027 11.2307419,16.9465189 L8.74872043,19.4425189 C8.24102151,19.9532432 8.24102151,20.781027 8.74927957,21.292173 C9.00354839,21.5472541 9.3358172,21.6748649 9.66850538,21.6748649 C10.0018925,21.6748649 10.3348602,21.5472541 10.5888495,21.292173 L13.0276774,18.8393189 L15.4683226,21.292173 C15.9754624,21.8028973 16.7990753,21.8028973 17.306914,21.292173 C17.815871,20.781027 17.815871,19.9526811 17.306914,19.4425189 L14.8244731,16.9465189" id="Fill-5" fill="#FFFFFE"></path>
            </g>
        </g>
    </g>
</svg>