<?xml version="1.0" encoding="UTF-8"?>
<svg width="26px" height="26px" viewBox="0 0 26 26" version="1.1" xmlns="http://www.w3.org/2000/svg" xmlns:xlink="http://www.w3.org/1999/xlink">
    <!-- Generator: sketchtool 52.6 (67491) - http://www.bohemiancoding.com/sketch -->
    <title>88001817-744A-4949-859B-CF27F0685DCA</title>
    <desc>Created with sketchtool.</desc>
    <g id="Symbols" stroke="none" stroke-width="1" fill="none" fill-rule="evenodd">
        <g id="icon-/-social-networks-/-vk">
            <g id="icon-/-social-networks-/-white-/-vk-copy">
                <path d="M9.09090909,0.159545455 L17,0.159545455 C24.2181818,0.159545455 25.9272727,1.82590909 25.9272727,8.86363636 L25.9272727,16.575 C25.9272727,23.6127273 24.2181818,25.2790909 17,25.2790909 L9.09090909,25.2790909 C1.87272727,25.2790909 0.163636364,23.6127273 0.163636364,16.575 L0.163636364,8.86363636 C0.163636364,1.82590909 1.87272727,0.159545455 9.09090909,0.159545455" id="Path" fill="#4680C2"></path>
                <path d="M21.2545455,8.81045455 C21.3818182,8.42045455 21.2545455,8.13681818 20.6909091,8.13681818 L18.8181818,8.13681818 C18.3454545,8.13681818 18.1272727,8.385 18,8.65090909 C18,8.65090909 17.0363636,10.92 15.6909091,12.3913636 C15.2545455,12.8168182 15.0545455,12.9586364 14.8181818,12.9586364 C14.6909091,12.9586364 14.5272727,12.8168182 14.5272727,12.4268182 L14.5272727,8.79272727 C14.5272727,8.33181818 14.3818182,8.11909091 13.9818182,8.11909091 L11.0363636,8.11909091 C10.7454545,8.11909091 10.5636364,8.33181818 10.5636364,8.54454545 C10.5636364,8.98772727 11.2363636,9.09409091 11.3090909,10.335 L11.3090909,13.0295455 C11.3090909,13.6145455 11.2,13.7209091 10.9636364,13.7209091 C10.3272727,13.7209091 8.78181818,11.4340909 7.85454545,8.82818182 C7.67272727,8.31409091 7.49090909,8.11909091 7.01818182,8.11909091 L5.12727273,8.11909091 C4.58181818,8.11909091 4.49090909,8.36727273 4.49090909,8.63318182 C4.49090909,9.11181818 5.12727273,11.5227273 7.45454545,14.7136364 C9,16.8940909 11.2,18.0640909 13.1818182,18.0640909 C14.3818182,18.0640909 14.5272727,17.7981818 14.5272727,17.355 L14.5272727,15.7063636 C14.5272727,15.1745455 14.6363636,15.0859091 15.0181818,15.0859091 C15.2909091,15.0859091 15.7818182,15.2277273 16.8909091,16.2736364 C18.1636364,17.5145455 18.3818182,18.0818182 19.0909091,18.0818182 L20.9636364,18.0818182 C21.5090909,18.0818182 21.7636364,17.8159091 21.6181818,17.3018182 C21.4545455,16.7877273 20.8363636,16.0431818 20.0363636,15.1568182 C19.6,14.6604545 18.9454545,14.1109091 18.7454545,13.845 C18.4727273,13.4904545 18.5454545,13.3486364 18.7454545,13.0295455 C18.7272727,13.0295455 21.0181818,9.87409091 21.2545455,8.81045455" id="Path" fill="#FFFFFF"></path>
            </g>
        </g>
    </g>
</svg>